<svg height="512pt" viewBox="0 0 512 512" width="512pt" xmlns="http://www.w3.org/2000/svg"><path d="m421.160156 305.546875h-156.902344v-90.835937h-16.515624v90.839843h-156.902344c-18.21875 0-33.03125 14.816407-33.03125 33.03125v57.804688h16.515625v-57.804688c0-9.109375 7.410156-16.515625 16.515625-16.515625h156.902344v74.320313h16.515624v-74.320313h156.902344c9.105469 0 16.515625 7.40625 16.515625 16.515625v57.804688h16.515625v-57.804688c.003906-18.214843-14.8125-33.035156-33.03125-33.035156zm0 0" fill="#eceaec"/><path d="m247.742188 214.710938h16.515624v33.03125h-16.515624zm0 0" fill="#dad8db"/><path d="m379.871094 33.03125h-123.871094c-5.199219 0-10.09375-2.445312-13.214844-6.605469l-12.386718-16.515625c-4.675782-6.238281-12.019532-9.910156-19.816407-9.910156h-78.453125c-9.121094 0-16.515625 7.394531-16.515625 16.515625v198.195313c0 9.121093 7.394531 16.515624 16.515625 16.515624h247.742188c9.121094 0 16.515625-7.394531 16.515625-16.515624v-165.164063c0-9.121094-7.394531-16.515625-16.515625-16.515625zm0 0" fill="#ffe07d"/><path d="m304.773438 90.839844h-15.742188c-10.164062 0-19.421875 3.742187-26.597656 9.878906-3.679688 3.148438-9.191406 3.148438-12.871094 0-7.171875-6.136719-16.429688-9.878906-26.59375-9.878906h-15.742188c-22.546874 0-41.519531 17.75-42.054687 40.292968-.550781 23.21875 18.179687 42.289063 41.277344 42.289063h16.515625c10.164062 0 19.425781-3.742187 26.597656-9.882813 3.679688-3.148437 9.191406-3.148437 12.871094 0 7.171875 6.140626 16.433594 9.882813 26.597656 9.882813h16.515625c23.097656 0 41.832031-19.070313 41.277344-42.289063-.53125-22.542968-19.503907-40.292968-42.050781-40.292968zm-81.804688 66.0625h-16.515625c-13.664063 0-24.773437-11.113282-24.773437-24.773438s11.109374-24.773437 24.773437-24.773437h16.515625c13.660156 0 24.773438 11.113281 24.773438 24.773437s-11.113282 24.773438-24.773438 24.773438zm82.578125 0h-16.515625c-13.660156 0-24.773438-11.113282-24.773438-24.773438s11.113282-24.773437 24.773438-24.773437h16.515625c13.664063 0 24.773437 11.113281 24.773437 24.773437.003907 13.660156-11.109374 24.773438-24.773437 24.773438zm0 0" fill="#fff"/><path d="m132.128906 0c-9.121094 0-16.515625 7.394531-16.515625 16.515625v198.195313c0 9.121093 7.394531 16.515624 16.515625 16.515624h247.742188c9.121094 0 16.515625-7.394531 16.515625-16.515624h-181.675781c-45.609376 0-82.582032-36.972657-82.582032-82.582032zm0 0" fill="#ffd064"/><path d="m264.257812 132.128906c0-13.660156 11.113282-24.773437 24.773438-24.773437h-66.0625c13.660156 0 24.773438 11.113281 24.773438 24.773437s-11.113282 24.773438-24.773438 24.773438h66.0625c-13.660156 0-24.773438-11.113282-24.773438-24.773438zm0 0" fill="#fff5d7"/><path d="m297.289062 140.386719h-82.578124c-4.566407 0-8.257813-3.699219-8.257813-8.257813s3.691406-8.257812 8.257813-8.257812h82.578124c4.566407 0 8.261719 3.699218 8.261719 8.257812-.003906 4.5625-3.695312 8.257813-8.261719 8.257813zm0 0" fill="#fff"/><path d="m132.128906 445.933594c0 36.488281-29.578125 66.066406-66.0625 66.066406-36.488281 0-66.066406-29.578125-66.066406-66.066406 0-36.484375 29.578125-66.0625 66.066406-66.0625 36.484375 0 66.0625 29.578125 66.0625 66.0625zm0 0" fill="#c3ddff"/><path d="m82.582031 437.675781c0 9.121094-7.394531 16.515625-16.515625 16.515625s-16.515625-7.394531-16.515625-16.515625c0-9.121093 7.394531-16.515625 16.515625-16.515625s16.515625 7.394532 16.515625 16.515625zm0 0" fill="#857e87"/><path d="m82.582031 495.484375c-36.488281 0-66.066406-29.578125-66.066406-66.066406 0-14.023438 4.371094-27.027344 11.824219-37.722657-17.132813 11.9375-28.339844 31.777344-28.339844 54.238282 0 36.488281 29.578125 66.066406 66.066406 66.066406 22.460938 0 42.300782-11.210938 54.238282-28.34375-10.695313 7.453125-23.699219 11.828125-37.722657 11.828125zm0 0" fill="#a4ccff"/><path d="m82.582031 470.710938h-33.035156c-9.121094 0-16.515625 7.394531-16.515625 16.515624v15.863282c9.726562 5.632812 20.984375 8.910156 33.03125 8.910156s23.308594-3.277344 33.035156-8.910156v-15.863282c0-9.121093-7.394531-16.515624-16.515625-16.515624zm0 0" fill="#857e87"/><path d="m82.582031 495.484375c-17.820312 0-34.046875-7.105469-45.929687-18.578125-2.28125 2.832031-3.621094 6.402344-3.621094 10.320312v15.933594c9.726562 5.632813 20.984375 8.839844 33.035156 8.839844 12.046875 0 23.304688-3.207031 33.03125-8.839844v-9.761718c-5.296875 1.378906-10.789062 2.085937-16.515625 2.085937zm0 0" fill="#6f6571"/><path d="m322.066406 445.933594c0 36.488281-29.578125 66.066406-66.066406 66.066406s-66.066406-29.578125-66.066406-66.066406c0-36.484375 29.578125-66.0625 66.066406-66.0625s66.066406 29.578125 66.066406 66.0625zm0 0" fill="#ffe07d"/><path d="m272.515625 437.675781c0 9.121094-7.394531 16.515625-16.515625 16.515625s-16.515625-7.394531-16.515625-16.515625c0-9.121093 7.394531-16.515625 16.515625-16.515625s16.515625 7.394532 16.515625 16.515625zm0 0" fill="#857e87"/><path d="m272.515625 495.484375c-36.484375 0-66.066406-29.578125-66.066406-66.066406 0-14.023438 4.375-27.027344 11.824219-37.722657-17.132813 11.933594-28.339844 31.777344-28.339844 54.238282 0 36.488281 29.582031 66.066406 66.066406 66.066406 22.464844 0 42.304688-11.210938 54.238281-28.34375-10.695312 7.453125-23.699219 11.828125-37.722656 11.828125zm0 0" fill="#ffd064"/><path d="m272.515625 470.710938h-33.03125c-9.121094 0-16.515625 7.394531-16.515625 16.515624v15.863282c9.722656 5.632812 20.984375 8.910156 33.03125 8.910156s23.308594-3.277344 33.03125-8.910156v-15.863282c0-9.121093-7.394531-16.515624-16.515625-16.515624zm0 0" fill="#857e87"/><path d="m272.515625 495.484375c-17.820313 0-34.046875-7.105469-45.929687-18.578125-2.28125 2.832031-3.617188 6.402344-3.617188 10.320312v15.933594c9.722656 5.632813 20.984375 8.839844 33.03125 8.839844s23.308594-3.207031 33.03125-8.839844v-9.761718c-5.296875 1.378906-10.785156 2.085937-16.515625 2.085937zm0 0" fill="#6f6571"/><path d="m512 445.933594c0 36.488281-29.578125 66.066406-66.066406 66.066406-36.484375 0-66.0625-29.578125-66.0625-66.066406 0-36.484375 29.578125-66.0625 66.0625-66.0625 36.488281 0 66.066406 29.578125 66.066406 66.0625zm0 0" fill="#ccf49f"/><path d="m462.449219 437.675781c0 9.121094-7.394531 16.515625-16.515625 16.515625s-16.515625-7.394531-16.515625-16.515625c0-9.121093 7.394531-16.515625 16.515625-16.515625s16.515625 7.394532 16.515625 16.515625zm0 0" fill="#857e87"/><path d="m462.453125 495.484375c-36.488281 0-66.066406-29.578125-66.066406-66.066406 0-14.023438 4.371093-27.027344 11.824219-37.722657-17.132813 11.933594-28.339844 31.777344-28.339844 54.238282 0 36.488281 29.578125 66.066406 66.066406 66.066406 22.460938 0 42.300781-11.210938 54.238281-28.34375-10.695312 7.453125-23.699219 11.828125-37.722656 11.828125zm0 0" fill="#b3e59f"/><path d="m462.453125 470.710938h-33.03125c-9.121094 0-16.519531 7.394531-16.519531 16.515624v15.863282c9.726562 5.632812 20.988281 8.910156 33.035156 8.910156s23.304688-3.277344 33.03125-8.910156v-15.863282c0-9.121093-7.394531-16.515624-16.515625-16.515624zm0 0" fill="#857e87"/><path d="m462.453125 495.484375c-17.820313 0-34.046875-7.105469-45.929687-18.578125-2.28125 2.832031-3.621094 6.402344-3.621094 10.320312v15.933594c9.726562 5.632813 20.984375 8.839844 33.03125 8.839844s23.308594-3.207031 33.035156-8.839844v-9.761718c-5.296875 1.378906-10.789062 2.085937-16.515625 2.085937zm0 0" fill="#6f6571"/></svg>